# xmcd
#
# Track frame offsets:
#	150
#	14512
#	29532
#	46932
#	62695
#	73045
#	91920
#	105070
#
# Disc length: 1665 seconds
#
# Revision: 1
# Processed by: cddbd v1.5PL3 Copyright (c) Steve Scherf et al.
# Submitted via: audiograbber 1.83.01
#
DISCID=5d067f08
DTITLE=The Ranchhands - The Ranchhands
DYEAR=2002
DGENRE=Country
TTITLE0=All The Wrong Places
TTITLE1=When I'm With You
TTITLE2=Everybody Says
TTITLE3=Birmingham
TTITLE4=Down In The Boondocks
TTITLE5=Another You
TTITLE6=Daphine
TTITLE7=Maybe It's Me
EXTD=
EXTT0=
EXTT1=
EXTT2=
EXTT3=
EXTT4=
EXTT5=
EXTT6=
EXTT7=
PLAYORDER=
